<svg xmlns="http://www.w3.org/2000/svg" width="512" height="512" viewBox="0 0 512 512" role="img" aria-label="NZ Public Holidays favicon">
  <rect width="512" height="512" rx="96" fill="#00247D"/>
  <g fill="#CC142B" stroke="#FFFFFF" stroke-width="14" stroke-linejoin="round">
    <path d="M256 110l17 36 40 5-29 28 7 40-35-19-35 19 7-40-29-28 40-5z"/>
    <path d="M355 190l12 26 28 3-21 20 5 28-24-13-24 13 5-28-21-20 28-3z"/>
    <path d="M190 255l12 26 28 3-21 20 5 28-24-13-24 13 5-28-21-20 28-3z"/>
    <path d="M320 325l13 28 31 4-23 22 6 31-27-15-27 15 6-31-23-22 31-4z"/>
  </g>
</svg>
